<svg width="1024" height="213" viewBox="0 0 1024 213" fill="none" xmlns="http://www.w3.org/2000/svg">
<path d="M100.905 204.291L50.5658 180.602V50.9703C50.5658 44.8153 53.2588 37.9838 57.611 33.6315L69.251 21.9916L120.136 187.575C123.715 199.137 111.856 209.445 100.905 204.291Z" fill="url(#paint0_linear_96_2809)"/>
<path d="M171.075 74.9788L113.659 11.8219C104.746 2.01726 89.4468 1.65317 80.0772 11.0227L57.6112 33.6315C53.3228 38.5325 50.8724 43.6853 50.8724 49.8403V179.472L165.843 110.49C178.401 102.955 180.926 85.8152 171.075 74.9788Z" fill="url(#paint1_linear_96_2809)"/>
<path d="M979.78 171.639C969.252 171.639 960.039 169.691 952.143 165.796C944.352 161.9 938.298 156.583 933.981 149.845C929.665 143.002 927.506 135.316 927.506 126.788C927.506 118.049 929.612 110.311 933.823 103.572C938.14 96.8341 943.983 91.5698 951.353 87.7796C958.829 83.9893 967.199 82.0942 976.464 82.0942C984.992 82.0942 992.836 83.7787 999.995 87.1479C1007.26 90.517 1013.05 95.518 1017.37 102.151C1021.79 108.784 1024 116.996 1024 126.788C1024 128.051 1023.95 129.472 1023.84 131.052C1023.74 132.526 1023.63 133.894 1023.53 135.158H957.039V117.944H1004.57L991.151 122.524C991.151 119.154 990.519 116.312 989.256 113.996C988.098 111.574 986.466 109.731 984.36 108.468C982.255 107.099 979.728 106.415 976.78 106.415C973.832 106.415 971.252 107.099 969.041 108.468C966.936 109.731 965.304 111.574 964.145 113.996C962.987 116.312 962.408 119.154 962.408 122.524V127.893C962.408 131.578 963.145 134.737 964.619 137.369C966.093 140.001 968.199 142.001 970.936 143.37C973.674 144.633 976.99 145.265 980.886 145.265C984.887 145.265 988.15 144.739 990.677 143.686C993.309 142.633 996.047 141.054 998.889 138.948L1017.52 157.741C1013.31 162.269 1008.1 165.743 1001.89 168.165C995.784 170.481 988.414 171.639 979.78 171.639Z" fill="url(#paint2_linear_96_2809)"/>
<path d="M876.604 171.639C869.234 171.639 861.97 170.849 854.81 169.27C847.651 167.691 841.86 165.638 837.438 163.111L847.23 139.58C851.336 142.001 856.074 143.896 861.443 145.265C866.918 146.634 872.235 147.318 877.394 147.318C881.711 147.318 884.606 146.95 886.08 146.213C887.659 145.476 888.449 144.475 888.449 143.212C888.449 141.949 887.554 141.054 885.764 140.527C883.974 139.896 881.605 139.422 878.657 139.106C875.709 138.79 872.446 138.422 868.866 138C865.391 137.474 861.864 136.737 858.285 135.789C854.705 134.842 851.441 133.421 848.493 131.525C845.545 129.63 843.176 127.103 841.387 123.945C839.597 120.681 838.702 116.575 838.702 111.627C838.702 106.152 840.334 101.203 843.598 96.7814C846.967 92.3595 851.915 88.8324 858.443 86.2003C865.076 83.4629 873.235 82.0942 882.921 82.0942C889.239 82.0942 895.556 82.6732 901.873 83.8314C908.19 84.9895 913.612 86.7794 918.139 89.2009L908.348 112.732C903.926 110.311 899.556 108.679 895.24 107.836C891.028 106.889 887.08 106.415 883.395 106.415C878.868 106.415 875.762 106.836 874.078 107.678C872.498 108.521 871.709 109.468 871.709 110.521C871.709 111.785 872.604 112.732 874.393 113.364C876.183 113.996 878.552 114.469 881.5 114.785C884.448 115.101 887.659 115.522 891.134 116.049C894.713 116.47 898.24 117.207 901.715 118.26C905.294 119.207 908.558 120.628 911.506 122.524C914.454 124.419 916.823 126.998 918.613 130.262C920.403 133.421 921.298 137.474 921.298 142.422C921.298 147.581 919.666 152.425 916.402 156.952C913.138 161.374 908.19 164.953 901.557 167.691C894.924 170.323 886.606 171.639 876.604 171.639Z" fill="url(#paint3_linear_96_2809)"/>
<path d="M770.772 170.06V83.6735H804.726V109.731L799.199 102.309C801.831 95.5707 806.042 90.517 811.833 87.1479C817.623 83.7787 824.572 82.0942 832.679 82.0942V113.68C831.1 113.469 829.679 113.311 828.415 113.206C827.257 113.101 826.046 113.048 824.783 113.048C819.413 113.048 814.991 114.469 811.517 117.312C808.148 120.049 806.463 124.84 806.463 131.683V170.06H770.772Z" fill="url(#paint4_linear_96_2809)"/>
<path d="M715.293 171.639C704.765 171.639 695.552 169.691 687.656 165.796C679.865 161.9 673.811 156.583 669.494 149.845C665.177 143.002 663.019 135.316 663.019 126.788C663.019 118.049 665.125 110.311 669.336 103.572C673.653 96.8341 679.496 91.5698 686.866 87.7796C694.341 83.9893 702.712 82.0942 711.977 82.0942C720.505 82.0942 728.348 83.7787 735.508 87.1479C742.772 90.517 748.563 95.518 752.88 102.151C757.302 108.784 759.513 116.996 759.513 126.788C759.513 128.051 759.46 129.472 759.355 131.052C759.25 132.526 759.144 133.894 759.039 135.158H692.552V117.944H740.088L726.664 122.524C726.664 119.154 726.032 116.312 724.769 113.996C723.611 111.574 721.979 109.731 719.873 108.468C717.767 107.099 715.24 106.415 712.292 106.415C709.344 106.415 706.765 107.099 704.554 108.468C702.448 109.731 700.816 111.574 699.658 113.996C698.5 116.312 697.921 119.154 697.921 122.524V127.893C697.921 131.578 698.658 134.737 700.132 137.369C701.606 140.001 703.712 142.001 706.449 143.37C709.187 144.633 712.503 145.265 716.399 145.265C720.399 145.265 723.663 144.739 726.19 143.686C728.822 142.633 731.56 141.054 734.402 138.948L753.038 157.741C748.826 162.269 743.615 165.743 737.403 168.165C731.296 170.481 723.926 171.639 715.293 171.639Z" fill="url(#paint5_linear_96_2809)"/>
<path d="M587.948 170.065L541.201 59.5155H581.315L619.375 152.851H595.528L634.694 59.5155H671.333L624.587 170.065H587.948Z" fill="url(#paint6_linear_96_2809)"/>
<path d="M444.841 170.043L485.586 116.664L484.639 137.194L445.788 83.657H486.06L505.169 112.242L490.324 113.347L511.328 83.657H548.757L509.749 135.457V115.716L549.547 170.043H508.643L488.903 139.563L503.906 141.616L483.533 170.043H444.841Z" fill="url(#paint7_linear_96_2809)"/>
<path d="M402.658 170.05V83.6636H438.349V170.05H402.658ZM420.504 76.7148C413.976 76.7148 408.764 74.9776 404.869 71.5032C400.973 68.0288 399.025 63.7121 399.025 58.5531C399.025 53.3942 400.973 49.0775 404.869 45.6031C408.764 42.1287 413.976 40.3915 420.504 40.3915C427.031 40.3915 432.243 42.0234 436.138 45.2872C440.034 48.5511 441.982 52.7625 441.982 57.9214C441.982 63.3962 440.034 67.9235 436.138 71.5032C432.243 74.9776 427.031 76.7148 420.504 76.7148Z" fill="url(#paint8_linear_96_2809)"/>
<path d="M286.379 170.065V59.5155H339.6C349.918 59.5155 358.815 61.2001 366.29 64.5692C373.871 67.9383 379.714 72.7814 383.82 79.0985C387.926 85.3103 389.979 92.6803 389.979 101.208C389.979 109.736 387.926 117.106 383.82 123.318C379.714 129.53 373.871 134.373 366.29 137.847C358.815 141.217 349.918 142.901 339.6 142.901H307.067L323.65 126.95V170.065H286.379ZM323.65 131.057L307.067 114.158H337.231C342.39 114.158 346.181 113 348.602 110.684C351.129 108.368 352.392 105.209 352.392 101.208C352.392 97.2075 351.129 94.049 348.602 91.7327C346.181 89.4164 342.39 88.2583 337.231 88.2583H307.067L323.65 71.3601V131.057Z" fill="url(#paint9_linear_96_2809)"/>
<defs>
<linearGradient id="paint0_linear_96_2809" x1="-40.8623" y1="50.6404" x2="119.269" y2="203.81" gradientUnits="userSpaceOnUse">
<stop stop-color="#FE9E58"/>
<stop offset="0.396099" stop-color="#E470EC"/>
<stop offset="1" stop-color="#442FBA"/>
</linearGradient>
<linearGradient id="paint1_linear_96_2809" x1="142.301" y1="49.5105" x2="-17.8302" y2="202.68" gradientUnits="userSpaceOnUse">
<stop stop-color="#FFA052"/>
<stop offset="0.396099" stop-color="#E36CFA" stop-opacity="0.8"/>
<stop offset="1" stop-color="#442FBA" stop-opacity="0.7"/>
</linearGradient>
<linearGradient id="paint2_linear_96_2809" x1="608.583" y1="62.7668" x2="608.583" y2="165.693" gradientUnits="userSpaceOnUse">
<stop stop-color="#F3F3F3"/>
<stop offset="1" stop-color="#E2E2E2"/>
</linearGradient>
<linearGradient id="paint3_linear_96_2809" x1="608.583" y1="62.7668" x2="608.583" y2="165.693" gradientUnits="userSpaceOnUse">
<stop stop-color="#F3F3F3"/>
<stop offset="1" stop-color="#E2E2E2"/>
</linearGradient>
<linearGradient id="paint4_linear_96_2809" x1="608.583" y1="62.7668" x2="608.583" y2="165.693" gradientUnits="userSpaceOnUse">
<stop stop-color="#F3F3F3"/>
<stop offset="1" stop-color="#E2E2E2"/>
</linearGradient>
<linearGradient id="paint5_linear_96_2809" x1="608.583" y1="62.7668" x2="608.583" y2="165.693" gradientUnits="userSpaceOnUse">
<stop stop-color="#F3F3F3"/>
<stop offset="1" stop-color="#E2E2E2"/>
</linearGradient>
<linearGradient id="paint6_linear_96_2809" x1="608.583" y1="62.7668" x2="608.583" y2="165.693" gradientUnits="userSpaceOnUse">
<stop stop-color="#F3F3F3"/>
<stop offset="1" stop-color="#E2E2E2"/>
</linearGradient>
<linearGradient id="paint7_linear_96_2809" x1="608.583" y1="62.7668" x2="608.583" y2="165.693" gradientUnits="userSpaceOnUse">
<stop stop-color="#F3F3F3"/>
<stop offset="1" stop-color="#E2E2E2"/>
</linearGradient>
<linearGradient id="paint8_linear_96_2809" x1="608.583" y1="62.7668" x2="608.583" y2="165.693" gradientUnits="userSpaceOnUse">
<stop stop-color="#F3F3F3"/>
<stop offset="1" stop-color="#E2E2E2"/>
</linearGradient>
<linearGradient id="paint9_linear_96_2809" x1="608.583" y1="62.7668" x2="608.583" y2="165.693" gradientUnits="userSpaceOnUse">
<stop stop-color="#F3F3F3"/>
<stop offset="1" stop-color="#E2E2E2"/>
</linearGradient>
</defs>
</svg>
